<mxfile host="app.diagrams.net" agent="Mozilla/5.0 (Windows NT 10.0; Win64; x64) AppleWebKit/537.36 (KHTML, like Gecko) Chrome/129.0.0.0 Safari/537.36" version="24.7.17">
  <diagram name="PÃ¡gina-1" id="nYbkaLfyaV8hnazKFv6S">
    <mxGraphModel dx="1877" dy="557" grid="1" gridSize="10" guides="1" tooltips="1" connect="1" arrows="1" fold="1" page="1" pageScale="1" pageWidth="827" pageHeight="1169" math="0" shadow="0">
      <root>
        <mxCell id="0" />
        <mxCell id="1" parent="0" />
        <mxCell id="2_nexBhhpEBwfzIcV70P-10" style="edgeStyle=orthogonalEdgeStyle;rounded=0;orthogonalLoop=1;jettySize=auto;html=1;exitX=0.5;exitY=1;exitDx=0;exitDy=0;entryX=0.5;entryY=0;entryDx=0;entryDy=0;" edge="1" parent="1" source="2_nexBhhpEBwfzIcV70P-1" target="2_nexBhhpEBwfzIcV70P-2">
          <mxGeometry relative="1" as="geometry" />
        </mxCell>
        <mxCell id="2_nexBhhpEBwfzIcV70P-1" value="" style="ellipse;whiteSpace=wrap;html=1;" vertex="1" parent="1">
          <mxGeometry x="100" y="40" width="100" height="50" as="geometry" />
        </mxCell>
        <mxCell id="2_nexBhhpEBwfzIcV70P-12" style="edgeStyle=orthogonalEdgeStyle;rounded=0;orthogonalLoop=1;jettySize=auto;html=1;exitX=0.5;exitY=1;exitDx=0;exitDy=0;entryX=0.5;entryY=0;entryDx=0;entryDy=0;" edge="1" parent="1" source="2_nexBhhpEBwfzIcV70P-2" target="2_nexBhhpEBwfzIcV70P-3">
          <mxGeometry relative="1" as="geometry" />
        </mxCell>
        <mxCell id="2_nexBhhpEBwfzIcV70P-2" value="" style="rounded=0;whiteSpace=wrap;html=1;" vertex="1" parent="1">
          <mxGeometry x="90" y="140" width="110" height="50" as="geometry" />
        </mxCell>
        <mxCell id="2_nexBhhpEBwfzIcV70P-3" value="" style="ellipse;whiteSpace=wrap;html=1;" vertex="1" parent="1">
          <mxGeometry x="90" y="250" width="110" height="70" as="geometry" />
        </mxCell>
        <mxCell id="2_nexBhhpEBwfzIcV70P-14" style="edgeStyle=orthogonalEdgeStyle;rounded=0;orthogonalLoop=1;jettySize=auto;html=1;exitX=0.5;exitY=1;exitDx=0;exitDy=0;" edge="1" parent="1" source="2_nexBhhpEBwfzIcV70P-4">
          <mxGeometry relative="1" as="geometry">
            <mxPoint x="375" y="110" as="targetPoint" />
          </mxGeometry>
        </mxCell>
        <mxCell id="2_nexBhhpEBwfzIcV70P-4" value="" style="ellipse;whiteSpace=wrap;html=1;" vertex="1" parent="1">
          <mxGeometry x="320" y="20" width="110" height="60" as="geometry" />
        </mxCell>
        <mxCell id="2_nexBhhpEBwfzIcV70P-17" style="edgeStyle=orthogonalEdgeStyle;rounded=0;orthogonalLoop=1;jettySize=auto;html=1;exitX=0.5;exitY=1;exitDx=0;exitDy=0;" edge="1" parent="1" source="2_nexBhhpEBwfzIcV70P-5">
          <mxGeometry relative="1" as="geometry">
            <mxPoint x="375" y="210" as="targetPoint" />
          </mxGeometry>
        </mxCell>
        <mxCell id="2_nexBhhpEBwfzIcV70P-5" value="" style="rounded=0;whiteSpace=wrap;html=1;" vertex="1" parent="1">
          <mxGeometry x="315" y="120" width="120" height="60" as="geometry" />
        </mxCell>
        <mxCell id="2_nexBhhpEBwfzIcV70P-6" value="" style="rhombus;whiteSpace=wrap;html=1;" vertex="1" parent="1">
          <mxGeometry x="320" y="220" width="115" height="80" as="geometry" />
        </mxCell>
        <mxCell id="2_nexBhhpEBwfzIcV70P-7" value="" style="rounded=0;whiteSpace=wrap;html=1;" vertex="1" parent="1">
          <mxGeometry x="420" y="320" width="120" height="60" as="geometry" />
        </mxCell>
        <mxCell id="2_nexBhhpEBwfzIcV70P-8" value="" style="ellipse;whiteSpace=wrap;html=1;" vertex="1" parent="1">
          <mxGeometry x="330" y="410" width="112.5" height="70" as="geometry" />
        </mxCell>
        <mxCell id="2_nexBhhpEBwfzIcV70P-16" value="" style="endArrow=classic;html=1;rounded=0;entryX=0.59;entryY=-0.063;entryDx=0;entryDy=0;entryPerimeter=0;exitX=1;exitY=0.5;exitDx=0;exitDy=0;" edge="1" parent="1" source="2_nexBhhpEBwfzIcV70P-6" target="2_nexBhhpEBwfzIcV70P-7">
          <mxGeometry width="50" height="50" relative="1" as="geometry">
            <mxPoint x="390" y="320" as="sourcePoint" />
            <mxPoint x="440" y="270" as="targetPoint" />
            <Array as="points">
              <mxPoint x="491" y="260" />
            </Array>
          </mxGeometry>
        </mxCell>
        <mxCell id="2_nexBhhpEBwfzIcV70P-18" value="" style="endArrow=classic;html=1;rounded=0;exitX=0.5;exitY=1;exitDx=0;exitDy=0;" edge="1" parent="1" source="2_nexBhhpEBwfzIcV70P-6">
          <mxGeometry width="50" height="50" relative="1" as="geometry">
            <mxPoint x="390" y="320" as="sourcePoint" />
            <mxPoint x="378" y="400" as="targetPoint" />
          </mxGeometry>
        </mxCell>
        <mxCell id="2_nexBhhpEBwfzIcV70P-19" value="" style="endArrow=classic;html=1;rounded=0;exitX=0.5;exitY=1;exitDx=0;exitDy=0;entryX=1;entryY=0.5;entryDx=0;entryDy=0;" edge="1" parent="1" source="2_nexBhhpEBwfzIcV70P-7" target="2_nexBhhpEBwfzIcV70P-8">
          <mxGeometry width="50" height="50" relative="1" as="geometry">
            <mxPoint x="390" y="320" as="sourcePoint" />
            <mxPoint x="440" y="270" as="targetPoint" />
            <Array as="points">
              <mxPoint x="480" y="450" />
            </Array>
          </mxGeometry>
        </mxCell>
        <mxCell id="2_nexBhhpEBwfzIcV70P-36" style="edgeStyle=orthogonalEdgeStyle;rounded=0;orthogonalLoop=1;jettySize=auto;html=1;exitX=0.5;exitY=1;exitDx=0;exitDy=0;entryX=0.5;entryY=0;entryDx=0;entryDy=0;" edge="1" parent="1" source="2_nexBhhpEBwfzIcV70P-22" target="2_nexBhhpEBwfzIcV70P-23">
          <mxGeometry relative="1" as="geometry" />
        </mxCell>
        <mxCell id="2_nexBhhpEBwfzIcV70P-22" value="" style="ellipse;whiteSpace=wrap;html=1;" vertex="1" parent="1">
          <mxGeometry x="85" y="510" width="120" height="80" as="geometry" />
        </mxCell>
        <mxCell id="2_nexBhhpEBwfzIcV70P-37" style="edgeStyle=orthogonalEdgeStyle;rounded=0;orthogonalLoop=1;jettySize=auto;html=1;exitX=0.5;exitY=1;exitDx=0;exitDy=0;entryX=0.5;entryY=0;entryDx=0;entryDy=0;" edge="1" parent="1" source="2_nexBhhpEBwfzIcV70P-23" target="2_nexBhhpEBwfzIcV70P-24">
          <mxGeometry relative="1" as="geometry" />
        </mxCell>
        <mxCell id="2_nexBhhpEBwfzIcV70P-23" value="" style="rounded=0;whiteSpace=wrap;html=1;" vertex="1" parent="1">
          <mxGeometry x="85" y="630" width="120" height="60" as="geometry" />
        </mxCell>
        <mxCell id="2_nexBhhpEBwfzIcV70P-38" style="edgeStyle=orthogonalEdgeStyle;rounded=0;orthogonalLoop=1;jettySize=auto;html=1;exitX=0;exitY=0.5;exitDx=0;exitDy=0;entryX=0.5;entryY=0;entryDx=0;entryDy=0;" edge="1" parent="1" source="2_nexBhhpEBwfzIcV70P-24" target="2_nexBhhpEBwfzIcV70P-26">
          <mxGeometry relative="1" as="geometry" />
        </mxCell>
        <mxCell id="2_nexBhhpEBwfzIcV70P-24" value="" style="rhombus;whiteSpace=wrap;html=1;" vertex="1" parent="1">
          <mxGeometry x="95" y="720" width="110" height="80" as="geometry" />
        </mxCell>
        <mxCell id="2_nexBhhpEBwfzIcV70P-41" style="edgeStyle=orthogonalEdgeStyle;rounded=0;orthogonalLoop=1;jettySize=auto;html=1;exitX=0.5;exitY=1;exitDx=0;exitDy=0;" edge="1" parent="1" source="2_nexBhhpEBwfzIcV70P-25">
          <mxGeometry relative="1" as="geometry">
            <mxPoint x="130" y="950" as="targetPoint" />
          </mxGeometry>
        </mxCell>
        <mxCell id="2_nexBhhpEBwfzIcV70P-25" value="" style="rounded=0;whiteSpace=wrap;html=1;" vertex="1" parent="1">
          <mxGeometry x="210" y="820" width="120" height="60" as="geometry" />
        </mxCell>
        <mxCell id="2_nexBhhpEBwfzIcV70P-40" style="edgeStyle=orthogonalEdgeStyle;rounded=0;orthogonalLoop=1;jettySize=auto;html=1;exitX=0.5;exitY=1;exitDx=0;exitDy=0;entryX=0.5;entryY=0;entryDx=0;entryDy=0;" edge="1" parent="1" source="2_nexBhhpEBwfzIcV70P-26" target="2_nexBhhpEBwfzIcV70P-27">
          <mxGeometry relative="1" as="geometry" />
        </mxCell>
        <mxCell id="2_nexBhhpEBwfzIcV70P-26" value="" style="rounded=0;whiteSpace=wrap;html=1;" vertex="1" parent="1">
          <mxGeometry x="-25" y="820" width="120" height="60" as="geometry" />
        </mxCell>
        <mxCell id="2_nexBhhpEBwfzIcV70P-27" value="" style="ellipse;whiteSpace=wrap;html=1;" vertex="1" parent="1">
          <mxGeometry x="70" y="960" width="120" height="80" as="geometry" />
        </mxCell>
        <mxCell id="2_nexBhhpEBwfzIcV70P-42" style="edgeStyle=orthogonalEdgeStyle;rounded=0;orthogonalLoop=1;jettySize=auto;html=1;exitX=0.5;exitY=1;exitDx=0;exitDy=0;entryX=0.5;entryY=0;entryDx=0;entryDy=0;" edge="1" parent="1" source="2_nexBhhpEBwfzIcV70P-28" target="2_nexBhhpEBwfzIcV70P-30">
          <mxGeometry relative="1" as="geometry" />
        </mxCell>
        <mxCell id="2_nexBhhpEBwfzIcV70P-28" value="" style="ellipse;whiteSpace=wrap;html=1;" vertex="1" parent="1">
          <mxGeometry x="480" y="510" width="120" height="80" as="geometry" />
        </mxCell>
        <mxCell id="2_nexBhhpEBwfzIcV70P-49" style="edgeStyle=orthogonalEdgeStyle;rounded=0;orthogonalLoop=1;jettySize=auto;html=1;exitX=0.5;exitY=0;exitDx=0;exitDy=0;" edge="1" parent="1" source="2_nexBhhpEBwfzIcV70P-29">
          <mxGeometry relative="1" as="geometry">
            <mxPoint x="490" y="950" as="targetPoint" />
          </mxGeometry>
        </mxCell>
        <mxCell id="2_nexBhhpEBwfzIcV70P-50" style="edgeStyle=orthogonalEdgeStyle;rounded=0;orthogonalLoop=1;jettySize=auto;html=1;exitX=0.5;exitY=0;exitDx=0;exitDy=0;" edge="1" parent="1" source="2_nexBhhpEBwfzIcV70P-29" target="2_nexBhhpEBwfzIcV70P-35">
          <mxGeometry relative="1" as="geometry" />
        </mxCell>
        <mxCell id="2_nexBhhpEBwfzIcV70P-29" value="" style="ellipse;whiteSpace=wrap;html=1;" vertex="1" parent="1">
          <mxGeometry x="620" y="990" width="120" height="80" as="geometry" />
        </mxCell>
        <mxCell id="2_nexBhhpEBwfzIcV70P-43" style="edgeStyle=orthogonalEdgeStyle;rounded=0;orthogonalLoop=1;jettySize=auto;html=1;exitX=0.5;exitY=1;exitDx=0;exitDy=0;entryX=0.5;entryY=0;entryDx=0;entryDy=0;" edge="1" parent="1" source="2_nexBhhpEBwfzIcV70P-30" target="2_nexBhhpEBwfzIcV70P-32">
          <mxGeometry relative="1" as="geometry" />
        </mxCell>
        <mxCell id="2_nexBhhpEBwfzIcV70P-30" value="" style="rounded=0;whiteSpace=wrap;html=1;" vertex="1" parent="1">
          <mxGeometry x="490" y="620" width="120" height="60" as="geometry" />
        </mxCell>
        <mxCell id="2_nexBhhpEBwfzIcV70P-48" style="edgeStyle=orthogonalEdgeStyle;rounded=0;orthogonalLoop=1;jettySize=auto;html=1;exitX=0;exitY=0.5;exitDx=0;exitDy=0;entryX=0.5;entryY=0;entryDx=0;entryDy=0;" edge="1" parent="1" source="2_nexBhhpEBwfzIcV70P-31" target="2_nexBhhpEBwfzIcV70P-34">
          <mxGeometry relative="1" as="geometry" />
        </mxCell>
        <mxCell id="2_nexBhhpEBwfzIcV70P-31" value="" style="rhombus;whiteSpace=wrap;html=1;" vertex="1" parent="1">
          <mxGeometry x="620" y="800" width="120" height="80" as="geometry" />
        </mxCell>
        <mxCell id="2_nexBhhpEBwfzIcV70P-44" style="edgeStyle=orthogonalEdgeStyle;rounded=0;orthogonalLoop=1;jettySize=auto;html=1;exitX=0;exitY=0.5;exitDx=0;exitDy=0;entryX=0.5;entryY=0;entryDx=0;entryDy=0;" edge="1" parent="1" source="2_nexBhhpEBwfzIcV70P-32" target="2_nexBhhpEBwfzIcV70P-33">
          <mxGeometry relative="1" as="geometry" />
        </mxCell>
        <mxCell id="2_nexBhhpEBwfzIcV70P-45" style="edgeStyle=orthogonalEdgeStyle;rounded=0;orthogonalLoop=1;jettySize=auto;html=1;exitX=1;exitY=0.5;exitDx=0;exitDy=0;" edge="1" parent="1" source="2_nexBhhpEBwfzIcV70P-32" target="2_nexBhhpEBwfzIcV70P-31">
          <mxGeometry relative="1" as="geometry" />
        </mxCell>
        <mxCell id="2_nexBhhpEBwfzIcV70P-32" value="" style="rhombus;whiteSpace=wrap;html=1;" vertex="1" parent="1">
          <mxGeometry x="500" y="700" width="120" height="80" as="geometry" />
        </mxCell>
        <mxCell id="2_nexBhhpEBwfzIcV70P-33" value="" style="rounded=0;whiteSpace=wrap;html=1;" vertex="1" parent="1">
          <mxGeometry x="370" y="770" width="120" height="60" as="geometry" />
        </mxCell>
        <mxCell id="2_nexBhhpEBwfzIcV70P-34" value="" style="rounded=0;whiteSpace=wrap;html=1;" vertex="1" parent="1">
          <mxGeometry x="430" y="880" width="120" height="60" as="geometry" />
        </mxCell>
        <mxCell id="2_nexBhhpEBwfzIcV70P-35" value="" style="rounded=0;whiteSpace=wrap;html=1;" vertex="1" parent="1">
          <mxGeometry x="760" y="880" width="120" height="60" as="geometry" />
        </mxCell>
        <mxCell id="2_nexBhhpEBwfzIcV70P-39" style="edgeStyle=orthogonalEdgeStyle;rounded=0;orthogonalLoop=1;jettySize=auto;html=1;exitX=1;exitY=0.5;exitDx=0;exitDy=0;entryX=0.583;entryY=0;entryDx=0;entryDy=0;entryPerimeter=0;" edge="1" parent="1" source="2_nexBhhpEBwfzIcV70P-24" target="2_nexBhhpEBwfzIcV70P-25">
          <mxGeometry relative="1" as="geometry" />
        </mxCell>
        <mxCell id="2_nexBhhpEBwfzIcV70P-47" style="edgeStyle=orthogonalEdgeStyle;rounded=0;orthogonalLoop=1;jettySize=auto;html=1;exitX=1;exitY=0.5;exitDx=0;exitDy=0;entryX=0.598;entryY=-0.01;entryDx=0;entryDy=0;entryPerimeter=0;" edge="1" parent="1" source="2_nexBhhpEBwfzIcV70P-31" target="2_nexBhhpEBwfzIcV70P-35">
          <mxGeometry relative="1" as="geometry" />
        </mxCell>
      </root>
    </mxGraphModel>
  </diagram>
</mxfile>
